<?xml version="1.0" encoding="UTF-8" standalone="no"?>
<!-- Created with Inkscape (http://www.inkscape.org/) -->

<svg
   xmlns:dc="http://purl.org/dc/elements/1.1/"
   xmlns:cc="http://creativecommons.org/ns#"
   xmlns:rdf="http://www.w3.org/1999/02/22-rdf-syntax-ns#"
   xmlns:svg="http://www.w3.org/2000/svg"
   xmlns="http://www.w3.org/2000/svg"
   xmlns:sodipodi="http://sodipodi.sourceforge.net/DTD/sodipodi-0.dtd"
   xmlns:inkscape="http://www.inkscape.org/namespaces/inkscape"
   width="256mm"
   height="256mm"
   viewBox="0 0 256 256"
   version="1.1"
   id="svg8"
   inkscape:version="0.92.1 r15371"
   sodipodi:docname="bullet-good.svg">
  <defs
     id="defs2" />
  <sodipodi:namedview
     id="base"
     pagecolor="#ffffff"
     bordercolor="#666666"
     borderopacity="1.0"
     inkscape:pageopacity="0.0"
     inkscape:pageshadow="2"
     inkscape:zoom="0.35"
     inkscape:cx="-491.42857"
     inkscape:cy="548.57143"
     inkscape:document-units="mm"
     inkscape:current-layer="layer1"
     showgrid="false"
     inkscape:window-width="1600"
     inkscape:window-height="849"
     inkscape:window-x="0"
     inkscape:window-y="29"
     inkscape:window-maximized="1" />
  <metadata
     id="metadata5">
    <rdf:RDF>
      <cc:Work
         rdf:about="">
        <dc:format>image/svg+xml</dc:format>
        <dc:type
           rdf:resource="http://purl.org/dc/dcmitype/StillImage" />
        <dc:title />
      </cc:Work>
    </rdf:RDF>
  </metadata>
  <g
     inkscape:label="Layer 1"
     inkscape:groupmode="layer"
     id="layer1"
     transform="translate(0,-41)">
    <path
       style="color:#000000;clip-rule:nonzero;display:inline;overflow:visible;visibility:visible;opacity:1;isolation:auto;mix-blend-mode:normal;color-interpolation:sRGB;color-interpolation-filters:linearRGB;solid-color:#000000;solid-opacity:1;vector-effect:none;fill:#000000;fill-opacity:1;fill-rule:nonzero;stroke:none;stroke-width:9.65572739;stroke-linecap:round;stroke-linejoin:round;stroke-miterlimit:4;stroke-dasharray:none;stroke-dashoffset:0;stroke-opacity:0.97252742;marker:none;paint-order:stroke fill markers;color-rendering:auto;image-rendering:auto;shape-rendering:auto;text-rendering:auto;enable-background:accumulate"
       d="M 483.7793 11.337891 A 472.44094 472.44094 0 0 0 11.337891 483.7793 A 472.44094 472.44094 0 0 0 483.7793 956.2207 A 472.44094 472.44094 0 0 0 956.2207 483.7793 A 472.44094 472.44094 0 0 0 483.7793 11.337891 z M 464.88281 68.03125 L 502.67773 68.03125 C 555.02419 68.03125 597.16602 110.17307 597.16602 162.51953 L 597.16602 370.39453 L 805.03906 370.39453 C 857.38552 370.39453 899.52734 412.53636 899.52734 464.88281 L 899.52734 502.67773 C 899.52734 555.02419 857.38552 597.16602 805.03906 597.16602 L 597.16602 597.16602 L 597.16602 805.03906 C 597.16602 857.38552 555.02419 899.52734 502.67773 899.52734 L 464.88281 899.52734 C 412.53636 899.52734 370.39453 857.38552 370.39453 805.03906 L 370.39453 597.16602 L 162.51953 597.16602 C 110.17307 597.16602 68.03125 555.02419 68.03125 502.67773 L 68.03125 464.88281 C 68.03125 412.53636 110.17307 370.39453 162.51953 370.39453 L 370.39453 370.39453 L 370.39453 162.51953 C 370.39453 110.17307 412.53636 68.03125 464.88281 68.03125 z "
       transform="matrix(0.26458333,0,0,0.26458333,0,41)"
       id="path29" />
    <rect
       style="color:#000000;clip-rule:nonzero;display:inline;overflow:visible;visibility:visible;opacity:1;isolation:auto;mix-blend-mode:normal;color-interpolation:sRGB;color-interpolation-filters:linearRGB;solid-color:#000000;solid-opacity:1;vector-effect:none;fill:#800080;fill-opacity:1;fill-rule:nonzero;stroke:none;stroke-width:1.10472775;stroke-linecap:round;stroke-linejoin:round;stroke-miterlimit:4;stroke-dasharray:none;stroke-dashoffset:0;stroke-opacity:0.97252742;marker:none;paint-order:stroke fill markers;color-rendering:auto;image-rendering:auto;shape-rendering:auto;text-rendering:auto;enable-background:accumulate"
       id="rect31-6"
       width="220.00002"
       height="60"
       x="-444.13095"
       y="96.154755"
       rx="25"
       ry="25" />
    <rect
       style="color:#000000;clip-rule:nonzero;display:inline;overflow:visible;visibility:visible;opacity:1;isolation:auto;mix-blend-mode:normal;color-interpolation:sRGB;color-interpolation-filters:linearRGB;solid-color:#000000;solid-opacity:1;vector-effect:none;fill:#800080;fill-opacity:1;fill-rule:nonzero;stroke:none;stroke-width:1.10472786;stroke-linecap:round;stroke-linejoin:round;stroke-miterlimit:4;stroke-dasharray:none;stroke-dashoffset:0;stroke-opacity:0.97252742;marker:none;paint-order:stroke fill markers;color-rendering:auto;image-rendering:auto;shape-rendering:auto;text-rendering:auto;enable-background:accumulate"
       id="rect31-3-7"
       width="220.00003"
       height="60"
       x="16.154747"
       y="304.13095"
       rx="25"
       ry="25"
       transform="rotate(90)" />
  </g>
</svg>
