<?xml version="1.0" encoding="UTF-8" standalone="no"?>
<svg
   xmlns:dc="http://purl.org/dc/elements/1.1/"
   xmlns:cc="http://creativecommons.org/ns#"
   xmlns:rdf="http://www.w3.org/1999/02/22-rdf-syntax-ns#"
   xmlns:svg="http://www.w3.org/2000/svg"
   xmlns="http://www.w3.org/2000/svg"
   xmlns:xlink="http://www.w3.org/1999/xlink"
   xmlns:sodipodi="http://sodipodi.sourceforge.net/DTD/sodipodi-0.dtd"
   xmlns:inkscape="http://www.inkscape.org/namespaces/inkscape"
   viewBox="0 0 496.00001 495.99999"
   version="1.1"
   id="svg168"
   sodipodi:docname="tux.svg"
   inkscape:version="0.92.1 r15371"
   width="496"
   height="496">
  <metadata
     id="metadata172">
    <rdf:RDF>
      <cc:Work
         rdf:about="">
        <dc:format>image/svg+xml</dc:format>
        <dc:type
           rdf:resource="http://purl.org/dc/dcmitype/StillImage" />
        <dc:title></dc:title>
      </cc:Work>
    </rdf:RDF>
  </metadata>
  <sodipodi:namedview
     pagecolor="#ffffff"
     bordercolor="#666666"
     borderopacity="1"
     objecttolerance="10"
     gridtolerance="10"
     guidetolerance="10"
     inkscape:pageopacity="0"
     inkscape:pageshadow="2"
     inkscape:window-width="1121"
     inkscape:window-height="662"
     id="namedview170"
     showgrid="false"
     inkscape:zoom="0.48952669"
     inkscape:cx="-181.14631"
     inkscape:cy="443.43667"
     inkscape:window-x="0"
     inkscape:window-y="29"
     inkscape:window-maximized="0"
     inkscape:current-layer="svg168" />
  <defs
     id="defs80">
    <linearGradient
       id="a">
      <stop
         stop-color="#a5a5a5"
         offset="0"
         id="stop2" />
      <stop
         offset="1"
         id="stop4" />
    </linearGradient>
    <linearGradient
       id="e">
      <stop
         stop-color="#fff"
         offset="0"
         id="stop7" />
      <stop
         stop-color="#cbcbcb"
         offset="1"
         id="stop9" />
    </linearGradient>
    <linearGradient
       id="u"
       x1="6.5872002"
       x2="14.511"
       gradientTransform="matrix(0.05383,-1.0341,-1.11,-0.05777,-139.52,-66.77)"
       gradientUnits="userSpaceOnUse">
      <stop
         stop-color="#b44"
         offset="0"
         id="stop12" />
      <stop
         stop-color="#ee0d0d"
         offset="1"
         id="stop14" />
    </linearGradient>
    <linearGradient
       id="t"
       x1="73.362"
       x2="-2.7583001"
       y1="26.652"
       y2="21.27"
       gradientTransform="matrix(0.05763,-1.1072,-1.0336,-0.0538,-139.33,-65.677)"
       gradientUnits="userSpaceOnUse">
      <stop
         stop-color="#fff"
         offset="0"
         id="stop17" />
      <stop
         stop-color="#fff"
         stop-opacity="0"
         offset="1"
         id="stop19" />
    </linearGradient>
    <linearGradient
       id="s"
       x2="0"
       y1="-150.7"
       y2="327.66"
       gradientUnits="userSpaceOnUse">
      <stop
         stop-opacity="0"
         offset="0"
         id="stop22" />
      <stop
         offset=".5"
         id="stop24" />
      <stop
         stop-opacity="0"
         offset="1"
         id="stop26" />
    </linearGradient>
    <linearGradient
       id="c">
      <stop
         offset="0"
         id="stop29" />
      <stop
         stop-opacity="0"
         offset="1"
         id="stop31" />
    </linearGradient>
    <linearGradient
       id="r"
       x1="-113.06"
       x2="-111.58"
       gradientUnits="userSpaceOnUse">
      <stop
         stop-opacity=".0686"
         offset="0"
         id="stop34" />
      <stop
         stop-color="#fff"
         offset="1"
         id="stop36" />
    </linearGradient>
    <linearGradient
       id="p"
       x1="6.5872002"
       x2="14.511"
       gradientTransform="matrix(0.42547,-0.86649,0.93003,0.45667,-275.69,-8.2432)"
       gradientUnits="userSpaceOnUse">
      <stop
         stop-color="#2b435c"
         offset="0"
         id="stop39" />
      <stop
         stop-color="#1f3245"
         offset="1"
         id="stop41" />
    </linearGradient>
    <linearGradient
       id="o"
       x1="73.362"
       x2="-2.7583001"
       y1="26.652"
       y2="21.27"
       gradientTransform="matrix(0.45553,-0.92772,0.86608,0.42527,-276.35,-7.4428)"
       gradientUnits="userSpaceOnUse">
      <stop
         stop-color="#282828"
         offset="0"
         id="stop44" />
      <stop
         stop-color="#a9a9a9"
         stop-opacity="0"
         offset="1"
         id="stop46" />
    </linearGradient>
    <linearGradient
       id="n"
       x1="90.686996"
       x2="94.999001"
       gradientUnits="userSpaceOnUse">
      <stop
         stop-color="#ffb142"
         offset="0"
         id="stop49" />
      <stop
         stop-color="#c87600"
         offset="1"
         id="stop51" />
    </linearGradient>
    <linearGradient
       id="d">
      <stop
         stop-color="#fff"
         offset="0"
         id="stop54" />
      <stop
         stop-color="#fff"
         stop-opacity=".2476"
         offset="1"
         id="stop56" />
    </linearGradient>
    <linearGradient
       id="v"
       x1="10.496"
       x2="10.22"
       y1="93.337997"
       y2="84.287003"
       gradientTransform="matrix(0.12717,-2.4432,-0.47718,-0.02484,-139.2,-66.753)"
       gradientUnits="userSpaceOnUse"
       xlink:href="#e" />
    <linearGradient
       id="q"
       x1="10.496"
       x2="10.22"
       y1="93.337997"
       y2="84.287003"
       gradientTransform="matrix(1.0052,-2.0471,0.39983,0.19633,-275.97,-8.3778)"
       gradientUnits="userSpaceOnUse"
       xlink:href="#e" />
    <radialGradient
       id="m"
       cx="414.67999"
       cy="-8.8804998"
       r="123.55"
       gradientTransform="matrix(-1.8232e-6,0.27968,-0.60927,0,101.73,-39.26)"
       gradientUnits="userSpaceOnUse">
      <stop
         stop-color="#ffb142"
         offset="0"
         id="stop61" />
      <stop
         stop-color="#ffb141"
         offset=".8868"
         id="stop63" />
      <stop
         stop-color="#c87600"
         offset="1"
         id="stop65" />
    </radialGradient>
    <radialGradient
       id="b"
       cx="18.240999"
       cy="21.818001"
       r="8.3085003"
       gradientUnits="userSpaceOnUse">
      <stop
         stop-color="#729fcf"
         stop-opacity=".2078"
         offset="0"
         id="stop68" />
      <stop
         stop-color="#729fcf"
         stop-opacity=".6762"
         offset="1"
         id="stop70" />
    </radialGradient>
    <radialGradient
       id="l"
       cx="610.46002"
       cy="483.45001"
       r="167.56"
       gradientTransform="matrix(0,-0.48219,0.4319,-1.2542e-6,-151.97,551.35)"
       gradientUnits="userSpaceOnUse"
       xlink:href="#a" />
    <radialGradient
       id="k"
       cx="605.71002"
       cy="486.64999"
       r="117.14"
       gradientTransform="matrix(2.7744,0,0,1.9697,-1891.6,-872.89)"
       gradientUnits="userSpaceOnUse"
       xlink:href="#c" />
    <radialGradient
       id="j"
       cx="605.71002"
       cy="486.64999"
       r="117.14"
       gradientTransform="matrix(-2.7744,0,0,1.9697,112.76,-872.89)"
       gradientUnits="userSpaceOnUse"
       xlink:href="#c" />
    <radialGradient
       id="i"
       cx="380.26001"
       cy="622.48999"
       r="59.255001"
       gradientTransform="matrix(0,-0.74351,0.66041,0,-364.7,582.13)"
       gradientUnits="userSpaceOnUse"
       xlink:href="#a" />
    <radialGradient
       id="h"
       cx="371.45001"
       cy="647.69"
       r="59.255001"
       gradientTransform="matrix(0,-0.74351,-0.66041,0,552.03,582.13)"
       gradientUnits="userSpaceOnUse"
       xlink:href="#a" />
    <radialGradient
       id="g"
       cx="15.414"
       cy="13.078"
       r="6.6561999"
       gradientTransform="matrix(3.1154,0,0,2.7059,-75.905,-278.43)"
       gradientUnits="userSpaceOnUse"
       xlink:href="#d" />
    <radialGradient
       id="f"
       cx="15.414"
       cy="13.078"
       r="6.6561999"
       gradientTransform="matrix(3.1154,0,0,2.7059,-112.47,-278.16)"
       gradientUnits="userSpaceOnUse"
       xlink:href="#d" />
  </defs>
  <g
     id="g1306"
     transform="matrix(4.0655495,0,0,4.0655495,7.1110847,3.0078322)">
    <g
       id="g86"
       transform="matrix(0.95095,0,0,1,-29.819,-285.5)"
       style="fill-rule:evenodd">
      <path
         id="path82"
         d="m 81.781,385.54 c -15.668,1.6128 -33.638,14.291 -26.495,17.056 7.143,2.765 27.873,3.9181 31.79,0.69241 2.0127,-1.6576 5.6138,-5.8087 6.0382,-9.704 0.42497,3.8949 4.0155,8.0466 6.0281,9.704 3.9169,3.2257 24.658,2.0724 31.8,-0.69241 7.142,-2.76481 -10.827,-15.443 -26.495,-17.056 -8.0678,0.77761 -10.97,3.4884 -11.333,6.5983 -0.36356,-3.1099 -3.2654,-5.8207 -11.333,-6.5983 z"
         inkscape:connector-curvature="0"
         style="fill:url(#m);stroke:#000000;stroke-width:1.56389999" />
      <path
         id="path84"
         d="m 81.784,385.55 c -7.69,0.79161 -15.927,4.249 -21.485,7.8915 8.4173,3.8928 18.709,6.2918 29.865,6.5678 1.4296,-1.8809 2.7102,-4.1871 2.9529,-6.415 0.24081,2.207 1.4914,4.4927 2.902,6.3641 10.973,-0.4646 21.052,-2.9801 29.254,-6.9445 -5.5378,-3.4836 -13.432,-6.7029 -20.823,-7.4638 -8.0678,0.77762 -10.97,3.4884 -11.333,6.5983 -0.36356,-3.1099 -3.2654,-5.8207 -11.333,-6.5983 z"
         inkscape:connector-curvature="0"
         style="fill-opacity:0.3137" />
    </g>
    <g
       id="g94"
       transform="matrix(0.95095,0,0,1,-29.819,-285.5)">
      <path
         id="path88"
         d="m 146.28,340.23 a 53.95,53.95 0 0 1 -107.9,0 53.95,53.95 0 1 1 107.9,0 z"
         inkscape:connector-curvature="0"
         style="fill:url(#l);stroke:#000000;stroke-width:1.56389999;stroke-linecap:round" />
      <path
         id="path90"
         d="m 118.99,367.2 a 26.1535,26.1535 0 1 1 -52.307,0 26.1535,26.1535 0 1 1 52.307,0 z"
         inkscape:connector-curvature="0"
         style="fill:#ffffff;stroke:#000000;stroke-width:1.62919998;stroke-linecap:round" />
      <path
         id="path92"
         d="m 144.15,325.23 c 0.10951,1.4027 0.1731,2.8155 0.1731,4.2461 0,29.779 -24.178,53.947 -53.957,53.947 -24.575,0 -45.316,-16.459 -51.819,-38.948 2.1699,27.795 25.426,49.701 53.774,49.701 29.779,0 53.957,-24.168 53.957,-53.947 0,-5.2041 -0.75099,-10.237 -2.1282,-14.999 z"
         inkscape:connector-curvature="0"
         style="fill-opacity:0.3137" />
    </g>
    <g
       id="g136"
       transform="matrix(0.95095,0,0,1,-29.819,-285.5)">
      <path
         id="path126"
         d="m 81.252,304.33 c -7.4731,0 -13.543,6.9841 -13.543,15.589 0,8.6049 6.0697,15.589 13.543,15.589 4.3917,0 8.2889,-2.4146 10.763,-6.1503 2.4738,3.7383 6.3795,6.1503 10.773,6.1503 7.4731,0 13.543,-6.9841 13.543,-15.589 0,-8.6049 -6.0697,-15.589 -13.543,-15.589 -4.3931,0 -8.2992,2.4127 -10.773,6.1503 -2.4741,-3.7348 -6.3718,-6.1503 -10.763,-6.1503 z"
         inkscape:connector-curvature="0"
         style="fill:#ffffff;stroke:#000000;stroke-width:1.62919998;stroke-linecap:round" />
      <path
         id="path128"
         d="m 92.662,331.22 c -4.7179,0 -9.846,4.2966 -9.6408,7.0102 0.2052,2.7136 8.4101,14.02 10.256,14.02 1.8459,0 9.0255,-11.081 8.8203,-14.247 -0.2052,-3.166 -6.3588,-7.0102 -9.4357,-6.7841 z"
         inkscape:connector-curvature="0"
         style="fill-opacity:0.3137;fill-rule:evenodd" />
      <path
         id="path130"
         d="m 91.917,328.5 c -4.7179,0 -9.846,3.8974 -9.6408,6.3588 0.2052,2.4614 8.4101,12.718 10.256,12.718 1.8459,0 9.0255,-10.051 8.8204,-12.923 -0.2051,-2.872 -6.3589,-6.3588 -9.4357,-6.1537 z"
         inkscape:connector-curvature="0"
         style="fill:url(#n);fill-rule:evenodd;stroke:#000000;stroke-width:1.62919998" />
      <path
         id="path132"
         d="m 87.163,324.66 a 3.3846,3.3846 0 0 1 -6.7691,0 3.3846,3.3846 0 1 1 6.7691,0 z"
         inkscape:connector-curvature="0"
         style="stroke:#000000;stroke-width:1.62919998;stroke-linecap:round" />
      <path
         id="path134"
         d="m 103.76,324.66 a 3.3846,3.3846 0 1 1 -6.7691,0 3.3846,3.3846 0 1 1 6.7691,0 z"
         inkscape:connector-curvature="0"
         style="stroke:#000000;stroke-width:1.62919998;stroke-linecap:round" />
    </g>
    <g
       id="g142"
       transform="matrix(0.95095,0,0,1,-29.819,-285.5)"
       style="fill-rule:evenodd;stroke:#000000;stroke-width:1.62919998">
      <path
         id="path138"
         d="m 51.639,328.16 c 15.677,5.6371 -4.615,30.676 12.323,52.523 3.1308,4.0382 -18.856,0.68126 -26.629,-21.696 -7.559,-21.762 -0.36897,-35.041 14.306,-30.827 z"
         inkscape:connector-curvature="0"
         style="fill:#ffffff" />
      <path
         id="path140"
         d="m 51.639,328.16 c 15.677,5.6371 -13.877,33.276 12.323,52.523 7.3726,5.416 -18.856,0.68126 -26.629,-21.696 -7.559,-21.762 -0.36897,-35.041 14.306,-30.827 z"
         inkscape:connector-curvature="0"
         style="fill:url(#i)" />
    </g>
    <g
       id="g148"
       transform="matrix(0.95095,0,0,1,-29.819,-285.5)"
       style="fill-rule:evenodd;stroke:#000000;stroke-width:1.62919998">
      <path
         id="path144"
         d="m 135.69,328.16 c -15.677,5.6371 4.615,30.676 -12.323,52.523 -3.1308,4.0382 18.856,0.68126 26.629,-21.696 7.559,-21.762 0.36897,-35.041 -14.306,-30.827 z"
         inkscape:connector-curvature="0"
         style="fill:#ffffff" />
      <path
         id="path146"
         d="m 135.69,328.16 c -15.677,5.6371 13.877,33.276 -12.323,52.523 -7.3726,5.416 18.856,0.68126 26.629,-21.696 7.559,-21.762 0.36897,-35.041 -14.306,-30.827 z"
         inkscape:connector-curvature="0"
         style="fill:url(#h)" />
    </g>
  </g>
</svg>
